<svg width="25" height="25" viewBox="0 0 25 25" fill="none" xmlns="http://www.w3.org/2000/svg">
<g clip-path="url(#clip0_71_6)">
<path d="M4 7L2 24.5H23L21 7H4Z" stroke="white" stroke-miterlimit="10" stroke-linecap="round"/>
<path d="M17 9.5C17 8.8795 17 6.1205 17 5.5C17 3.0145 14.9855 1 12.5 1C10.0145 1 8 3.0145 8 5.5C8 6.1205 8 8.8795 8 9.5" stroke="white" stroke-miterlimit="10" stroke-linecap="round"/>
<path d="M17 10.5C17.5523 10.5 18 10.0523 18 9.5C18 8.94772 17.5523 8.5 17 8.5C16.4477 8.5 16 8.94772 16 9.5C16 10.0523 16.4477 10.5 17 10.5Z" fill="white"/>
<path d="M8 10.5C8.55228 10.5 9 10.0523 9 9.5C9 8.94772 8.55228 8.5 8 8.5C7.44772 8.5 7 8.94772 7 9.5C7 10.0523 7.44772 10.5 8 10.5Z" fill="white"/>
</g>
<defs>
<clipPath id="clip0_71_6">
<rect width="25" height="25" fill="white"/>
</clipPath>
</defs>
</svg>
