<svg width="101" height="61" viewBox="0 0 101 61" fill="none" xmlns="http://www.w3.org/2000/svg">
<path d="M5.52 25.7H5.67V26H1.38V25.7H1.53C1.69 25.7 1.83 25.65 1.95 25.55C2.07 25.43 2.17 25.29 2.25 25.13C2.35 24.97 2.42 24.8 2.46 24.62C2.5 24.44 2.52 24.27 2.52 24.11V8.06C2.52 7.92 2.5 7.76 2.46 7.58C2.42 7.4 2.36 7.23 2.28 7.07C2.2 6.91 2.09 6.78 1.95 6.68C1.83 6.56 1.69 6.5 1.53 6.5H1.38V6.2H12.9V8.99H12.6C12.6 8.53 12.44 8.13 12.12 7.79C11.82 7.43 11.34 7.25 10.68 7.25H4.53V14.84H9.51C9.97 14.84 10.35 14.7 10.65 14.42C10.97 14.14 11.13 13.81 11.13 13.43H11.43V17.18H11.13C11.13 16.82 10.98 16.51 10.68 16.25C10.38 15.99 9.99 15.86 9.51 15.86H4.53V24.11C4.53 24.27 4.55 24.44 4.59 24.62C4.63 24.8 4.69 24.97 4.77 25.13C4.87 25.29 4.98 25.43 5.1 25.55C5.22 25.65 5.36 25.7 5.52 25.7ZM14.3688 6.2H18.6588V6.5H18.5088C18.3688 6.5 18.2388 6.56 18.1188 6.68C17.9988 6.78 17.8988 6.91 17.8188 7.07C17.7388 7.21 17.6688 7.38 17.6088 7.58C17.5688 7.76 17.5488 7.92 17.5488 8.06V24.05C17.5488 24.21 17.5688 24.39 17.6088 24.59C17.6488 24.77 17.7088 24.94 17.7888 25.1C17.8888 25.26 17.9888 25.4 18.0888 25.52C18.2088 25.64 18.3488 25.7 18.5088 25.7H18.6588V26H14.3688V25.7H14.5188C14.6788 25.7 14.8188 25.65 14.9388 25.55C15.0588 25.43 15.1588 25.29 15.2388 25.13C15.3388 24.95 15.4088 24.77 15.4488 24.59C15.4888 24.39 15.5088 24.21 15.5088 24.05V8.06C15.5088 7.92 15.4888 7.76 15.4488 7.58C15.4088 7.4 15.3388 7.23 15.2388 7.07C15.1588 6.91 15.0588 6.78 14.9388 6.68C14.8188 6.56 14.6788 6.5 14.5188 6.5H14.3688V6.2ZM20.6438 25.7H20.7938C20.9538 25.7 21.0938 25.65 21.2138 25.55C21.3338 25.43 21.4338 25.29 21.5138 25.13C21.6138 24.97 21.6838 24.8 21.7238 24.62C21.7838 24.44 21.8138 24.27 21.8138 24.11V8.06C21.8138 7.92 21.7838 7.76 21.7238 7.58C21.6838 7.4 21.6138 7.23 21.5138 7.07C21.4338 6.91 21.3338 6.78 21.2138 6.68C21.0938 6.56 20.9538 6.5 20.7938 6.5H20.6438V6.2H32.1938V8.99H31.8938C31.8538 8.53 31.6738 8.13 31.3538 7.79C31.0338 7.43 30.5338 7.25 29.8538 7.25H23.8238V14.84H28.8038C29.2638 14.84 29.6438 14.7 29.9438 14.42C30.2638 14.14 30.4238 13.81 30.4238 13.43H30.7238V17.18H30.4238C30.4238 16.82 30.2738 16.51 29.9738 16.25C29.6738 15.99 29.2838 15.86 28.8038 15.86H23.8238V24.95H30.3938C30.7738 24.95 31.1038 24.86 31.3838 24.68C31.6638 24.5 31.8938 24.29 32.0738 24.05C32.2738 23.79 32.4138 23.52 32.4938 23.24C32.5938 22.94 32.6438 22.69 32.6438 22.49H32.9438V26H20.6438V25.7ZM46.4543 20.69C46.4543 21.69 46.2543 22.55 45.8543 23.27C45.4543 23.97 44.9343 24.54 44.2943 24.98C43.6743 25.42 42.9643 25.74 42.1643 25.94C41.3843 26.14 40.6043 26.24 39.8243 26.24C39.0243 26.24 38.3343 26.16 37.7543 26C37.1743 25.84 36.6443 25.69 36.1643 25.55C35.8443 25.45 35.5543 25.37 35.2943 25.31C35.0343 25.23 34.7743 25.19 34.5143 25.19V21.77H34.8143C34.8143 22.53 35.0043 23.14 35.3843 23.6C35.7843 24.04 36.2443 24.38 36.7643 24.62C37.2843 24.86 37.8043 25.02 38.3243 25.1C38.8443 25.16 39.2243 25.19 39.4643 25.19C40.3243 25.19 41.0643 25.07 41.6843 24.83C42.3043 24.57 42.8143 24.24 43.2143 23.84C43.6143 23.42 43.9043 22.96 44.0843 22.46C44.2843 21.96 44.3843 21.45 44.3843 20.93C44.3843 20.27 44.2443 19.72 43.9643 19.28C43.6843 18.82 43.3143 18.42 42.8543 18.08C42.4143 17.74 41.9043 17.45 41.3243 17.21C40.7443 16.97 40.1543 16.73 39.5543 16.49C38.8743 16.23 38.2043 15.96 37.5443 15.68C36.8843 15.4 36.2943 15.06 35.7743 14.66C35.2543 14.24 34.8343 13.75 34.5143 13.19C34.1943 12.61 34.0343 11.9 34.0343 11.06C34.0343 10.18 34.2043 9.42 34.5443 8.78C34.8843 8.12 35.3343 7.58 35.8943 7.16C36.4743 6.74 37.1243 6.43 37.8443 6.23C38.5843 6.01 39.3343 5.9 40.0943 5.9C40.6143 5.9 41.1043 5.94 41.5643 6.02C42.0243 6.08 42.4643 6.16 42.8843 6.26C43.2243 6.34 43.5543 6.41 43.8743 6.47C44.1943 6.51 44.5043 6.53 44.8043 6.53V9.62H44.5043C44.4643 8.58 44.0543 7.88 43.2743 7.52C42.4943 7.14 41.4143 6.95 40.0343 6.95C39.2343 6.95 38.5743 7.09 38.0543 7.37C37.5543 7.63 37.1543 7.96 36.8543 8.36C36.5543 8.74 36.3443 9.16 36.2243 9.62C36.1243 10.06 36.0743 10.45 36.0743 10.79C36.0743 11.35 36.1943 11.83 36.4343 12.23C36.6943 12.63 37.0343 12.98 37.4543 13.28C37.8743 13.58 38.3543 13.85 38.8943 14.09C39.4543 14.33 40.0343 14.56 40.6343 14.78C41.3143 15.04 42.0043 15.32 42.7043 15.62C43.4043 15.92 44.0243 16.29 44.5643 16.73C45.1243 17.17 45.5743 17.71 45.9143 18.35C46.2743 18.99 46.4543 19.77 46.4543 20.69ZM54.588 25.7H54.738V26H50.478V25.7H50.628C50.788 25.7 50.928 25.64 51.048 25.52C51.168 25.4 51.268 25.26 51.348 25.1C51.448 24.94 51.518 24.77 51.558 24.59C51.598 24.39 51.618 24.21 51.618 24.05V7.31H48.138C47.818 7.31 47.538 7.38 47.298 7.52C47.058 7.66 46.858 7.84 46.698 8.06C46.538 8.26 46.418 8.49 46.338 8.75C46.258 8.99 46.218 9.23 46.218 9.47H45.918V6.2H59.388V9.47H59.088C59.088 9.23 59.048 8.99 58.968 8.75C58.888 8.49 58.768 8.26 58.608 8.06C58.448 7.84 58.248 7.66 58.008 7.52C57.768 7.38 57.488 7.31 57.168 7.31H53.628V24.05C53.628 24.21 53.648 24.39 53.688 24.59C53.728 24.77 53.788 24.94 53.868 25.1C53.968 25.26 54.068 25.4 54.168 25.52C54.288 25.64 54.428 25.7 54.588 25.7ZM68.808 25.7H68.958C69.438 25.7 69.678 25.48 69.678 25.04C69.678 24.88 69.648 24.71 69.588 24.53L66.888 17.24H61.638L59.028 24.41C58.968 24.57 58.938 24.72 58.938 24.86C58.938 25.12 59.008 25.33 59.148 25.49C59.288 25.63 59.438 25.7 59.598 25.7H59.748V26H56.418V25.7H56.568C56.828 25.7 57.078 25.55 57.318 25.25C57.578 24.93 57.788 24.56 57.948 24.14L64.818 5.84L71.538 23.96C71.678 24.36 71.868 24.75 72.108 25.13C72.368 25.51 72.698 25.7 73.098 25.7H73.248V26H68.808V25.7ZM61.938 16.22H66.558L64.248 9.95L61.938 16.22Z" fill="white"/>
<path d="M40.045 26.906L39.323 27.666C40.0197 27.666 40.71 27.5837 41.394 27.419C41.052 27.1783 40.6023 27.0073 40.045 26.906ZM39.133 26.811C39.019 26.7983 38.8353 26.792 38.582 26.792C37.822 26.792 37.442 26.8997 37.442 27.115C37.442 27.3303 37.7523 27.495 38.373 27.609C38.753 27.2037 39.0063 26.9377 39.133 26.811ZM24.921 30.858C25.9597 30.668 26.9477 30.573 27.885 30.573C28.835 30.573 29.7027 30.6553 30.488 30.82C30.754 30.3133 30.887 29.87 30.887 29.49C30.887 28.692 30.3613 28.293 29.31 28.293C28.4107 28.293 27.5683 28.54 26.783 29.034C26.0103 29.5153 25.3897 30.1233 24.921 30.858ZM25.833 35.171C26.3017 35.3483 26.897 35.437 27.619 35.437C28.3537 35.437 29.31 35.1647 30.488 34.62C31.6913 34.0627 32.654 33.423 33.376 32.701C32.806 32.0423 31.989 31.5483 30.925 31.219C30.4817 32.017 29.8103 32.777 28.911 33.499C28.0117 34.221 26.9857 34.7783 25.833 35.171ZM20.266 34.221C20.266 34.601 20.4687 34.905 20.874 35.133C21.292 35.3737 21.8937 35.494 22.679 35.494C23.4643 35.494 24.2497 35.3673 25.035 35.114C24.3003 34.658 23.933 33.9677 23.933 33.043C23.933 32.4223 24.104 31.7953 24.446 31.162C23.1793 31.4787 22.166 31.9347 21.406 32.53C20.646 33.1127 20.266 33.6763 20.266 34.221ZM42.173 24.683C41.9323 24.9237 41.2863 25.6013 40.235 26.716C40.881 26.83 41.3813 27.0327 41.736 27.324C42.952 26.9567 43.94 26.3867 44.7 25.614C45.46 24.8287 45.84 24.0243 45.84 23.201C45.84 22.7323 45.6943 22.2953 45.403 21.89C44.339 22.6373 43.2623 23.5683 42.173 24.683ZM30.355 31.048C29.5317 30.858 28.645 30.763 27.695 30.763C26.7577 30.763 25.7823 30.8707 24.769 31.086C24.4017 31.7193 24.218 32.3527 24.218 32.986C24.218 33.898 24.617 34.5693 25.415 35C26.479 34.6073 27.4543 34.0437 28.341 33.309C29.2277 32.5743 29.899 31.8207 30.355 31.048ZM41.641 35.855H41.926C42.6733 35.855 43.389 35.6777 44.073 35.323C44.757 34.9683 45.3143 34.5313 45.745 34.012C46.1883 33.4927 46.5367 32.9607 46.79 32.416C47.0433 31.8713 47.17 31.39 47.17 30.972C47.17 30.5033 46.8787 30.269 46.296 30.269C45.8907 30.269 45.4283 30.3957 44.909 30.649C44.3897 30.9023 43.883 31.257 43.389 31.713C42.895 32.1563 42.477 32.739 42.135 33.461C41.8057 34.183 41.641 34.9493 41.641 35.76V35.855ZM34.079 22.555C33.4837 23.1123 33.0213 23.6887 32.692 24.284C32.3627 24.8667 32.198 25.386 32.198 25.842C32.198 26.298 32.3183 26.6527 32.559 26.906C32.8123 27.1593 33.167 27.286 33.623 27.286C34.5857 27.286 35.5483 26.944 36.511 26.26C37.4737 25.576 38.2527 24.7463 38.848 23.771C39.4433 22.783 39.741 21.852 39.741 20.978C39.741 20.7373 39.7157 20.522 39.665 20.332C38.5123 20.4207 37.442 20.674 36.454 21.092C35.4787 21.4973 34.687 21.985 34.079 22.555ZM41.983 27.552C42.249 27.8813 42.382 28.2803 42.382 28.749C42.382 29.2177 42.287 29.661 42.097 30.079C41.907 30.4843 41.6727 30.8327 41.394 31.124C41.1153 31.4153 40.8367 31.7067 40.558 31.998C39.8993 32.6693 39.57 33.3533 39.57 34.05C39.57 35.1013 40.1717 35.6903 41.375 35.817V35.646C41.375 34.7973 41.546 34.0057 41.888 33.271C42.2427 32.5363 42.6797 31.941 43.199 31.485C43.731 31.0163 44.282 30.6553 44.852 30.402C45.4347 30.136 45.954 30.003 46.41 30.003C47.3853 30.003 47.873 30.402 47.873 31.2C47.873 31.656 47.7147 32.169 47.398 32.739C47.094 33.2963 46.6823 33.822 46.163 34.316C45.6437 34.81 44.9977 35.2217 44.225 35.551C43.465 35.893 42.6733 36.064 41.85 36.064H41.641C41.7043 36.9633 42.0337 37.6917 42.629 38.249C43.237 38.819 44.1237 39.104 45.289 39.104C45.6943 39.104 46.125 39.028 46.581 38.876L46.733 38.971C46.3403 39.1863 45.7703 39.294 45.023 39.294C43.883 39.294 43.009 38.99 42.401 38.382C41.8057 37.7867 41.47 37.0077 41.394 36.045C40.6087 35.9563 40.0387 35.6713 39.684 35.19C39.3293 34.7213 39.152 34.2083 39.152 33.651C39.152 33.0937 39.247 32.6187 39.437 32.226C39.627 31.8207 39.8613 31.466 40.14 31.162C40.4187 30.858 40.6973 30.554 40.976 30.25C41.622 29.5407 41.945 28.8757 41.945 28.255C41.945 28.027 41.85 27.818 41.66 27.628C40.7733 27.8053 39.9247 27.894 39.114 27.894C37.3153 29.7687 36.207 30.9467 35.789 31.428C35.409 31.808 34.858 32.2767 34.136 32.834C34.6427 33.4547 34.896 34.107 34.896 34.791C34.896 35.7663 34.3767 36.653 33.338 37.451C32.312 38.2617 30.792 38.819 28.778 39.123V38.914C30.5387 38.6353 31.8877 38.1033 32.825 37.318C33.7623 36.5453 34.231 35.684 34.231 34.734C34.231 34.1767 34.06 33.6383 33.718 33.119C31.2733 34.829 29.1643 35.684 27.391 35.684C26.5803 35.684 25.909 35.5573 25.377 35.304C24.4523 35.57 23.5403 35.703 22.641 35.703C21.7417 35.703 21.0513 35.5573 20.57 35.266C20.0887 34.9873 19.848 34.6263 19.848 34.183C19.848 33.575 20.266 32.9607 21.102 32.34C21.938 31.7067 23.097 31.2317 24.579 30.915C25.073 30.0917 25.757 29.4077 26.631 28.863C27.5177 28.3057 28.4867 28.027 29.538 28.027C30.184 28.027 30.6653 28.1663 30.982 28.445C31.2987 28.711 31.457 29.072 31.457 29.528C31.457 29.984 31.324 30.4653 31.058 30.972C32.1347 31.2887 33.015 31.7573 33.699 32.378C34.3197 31.77 35.7953 30.2563 38.126 27.837C37.442 27.723 37.1 27.514 37.1 27.21C37.1 27.0453 37.2457 26.906 37.537 26.792C37.8283 26.6653 38.164 26.602 38.544 26.602C38.9367 26.602 39.1963 26.6083 39.323 26.621L39.969 25.937C41.6917 24.0623 43.408 22.6057 45.118 21.567C44.2313 20.7183 42.724 20.294 40.596 20.294L40.197 20.313C40.2603 20.5663 40.292 20.8133 40.292 21.054C40.292 21.9913 39.9817 22.9603 39.361 23.961C38.753 24.949 37.9043 25.7913 36.815 26.488C35.7257 27.1847 34.5857 27.533 33.395 27.533C32.8123 27.533 32.3627 27.3873 32.046 27.096C31.742 26.8047 31.59 26.4057 31.59 25.899C31.59 25.3923 31.7673 24.835 32.122 24.227C32.4893 23.619 32.9897 23.03 33.623 22.46C34.269 21.8773 35.1177 21.377 36.169 20.959C37.233 20.5283 38.3857 20.2623 39.627 20.161C39.2597 18.9323 38.1133 18.318 36.188 18.318C35.5547 18.318 34.877 18.4257 34.155 18.641C33.433 18.8437 32.787 19.097 32.217 19.401C31.0643 20.0217 30.165 20.5853 29.519 21.092L29.12 21.396L28.93 21.225C29.234 20.959 29.6963 20.617 30.317 20.199C30.9503 19.781 31.5457 19.4327 32.103 19.154C32.6603 18.8627 33.3253 18.603 34.098 18.375C34.8833 18.147 35.6307 18.033 36.34 18.033C38.4553 18.033 39.7283 18.7297 40.159 20.123C40.3997 20.1103 40.596 20.104 40.748 20.104C42.8 20.104 44.3517 20.5347 45.403 21.396C46.9737 20.484 48.4113 20.028 49.716 20.028C50.704 20.028 51.464 20.2243 51.996 20.617C52.528 20.997 52.794 21.5037 52.794 22.137C52.794 22.7703 52.4393 23.3973 51.73 24.018C51.0333 24.6387 50.0643 25.0567 48.823 25.272L48.633 25.12C49.7857 24.9047 50.6723 24.5183 51.293 23.961C51.9263 23.4037 52.243 22.8337 52.243 22.251C52.243 21.6683 52.0023 21.1933 51.521 20.826C51.0523 20.4587 50.3873 20.275 49.526 20.275C48.3987 20.275 47.1257 20.7437 45.707 21.681C46.201 22.213 46.448 22.8147 46.448 23.486C46.448 24.3347 46.0553 25.139 45.27 25.899C44.4847 26.659 43.389 27.21 41.983 27.552ZM51.7825 31.808C51.7825 31.7067 51.6812 31.656 51.4785 31.656C51.2759 31.656 50.8642 31.8523 50.2435 32.245C49.6229 32.625 49.0972 33.0367 48.6665 33.48C49.5152 33.3407 50.2435 33.0873 50.8515 32.72C51.4722 32.34 51.7825 32.036 51.7825 31.808ZM48.0585 34.487C48.0585 34.8543 48.3119 35.038 48.8185 35.038C49.7812 35.038 50.9782 34.5187 52.4095 33.48L52.4475 33.765C50.9529 34.8163 49.6735 35.342 48.6095 35.342C47.8495 35.342 47.4695 35.0253 47.4695 34.392C47.4695 33.7587 47.9382 33.1 48.8755 32.416C49.8255 31.732 50.8009 31.39 51.8015 31.39C52.1182 31.39 52.2765 31.485 52.2765 31.675C52.2765 31.979 51.9219 32.3463 51.2125 32.777C50.5159 33.195 49.5975 33.5053 48.4575 33.708C48.1915 34.012 48.0585 34.2717 48.0585 34.487ZM54.9229 31.181C54.9736 31.105 55.0306 31.067 55.0939 31.067C55.1699 31.067 55.2079 31.105 55.2079 31.181C55.2079 31.257 55.1699 31.333 55.0939 31.409C55.0179 31.485 54.9609 31.7193 54.9229 32.112C54.8976 32.492 54.8026 32.9607 54.6379 33.518C54.4732 34.0627 54.1882 34.5567 53.7829 35C53.7829 35.0253 53.8082 35.038 53.8589 35.038C53.9476 35.038 54.2706 34.886 54.8279 34.582L55.0939 34.449C55.5752 34.183 56.0882 33.86 56.6329 33.48L56.6709 33.765C54.6949 35.0443 53.1812 35.684 52.1299 35.684C51.7119 35.684 51.4079 35.5953 51.2179 35.418C51.0152 35.2407 50.9139 35.0443 50.9139 34.829C50.9139 34.6137 50.9646 34.4427 51.0659 34.316C51.1672 34.1767 51.2939 34.107 51.4459 34.107C51.6359 34.107 51.7309 34.2083 51.7309 34.411C51.7309 34.5377 51.6296 34.6517 51.4269 34.753C51.3636 34.791 51.3319 34.8543 51.3319 34.943C51.3319 35.0317 51.4079 35.133 51.5599 35.247C51.6992 35.3737 51.8512 35.437 52.0159 35.437C52.5732 35.437 53.0482 35.0887 53.4409 34.392C53.8462 33.6827 54.1059 32.9797 54.2199 32.283V32.226C52.9912 33.062 52.1616 33.6067 51.7309 33.86L51.6739 33.594C53.7386 32.264 54.8216 31.4597 54.9229 31.181ZM64.707 25.766C64.707 25.8167 64.6373 25.9117 64.498 26.051C64.3587 26.1777 64.1053 26.412 63.738 26.754C63.3833 27.0833 62.9527 27.4823 62.446 27.951C61.9393 28.4197 61.515 28.8123 61.173 29.129H64.346C64.384 29.129 64.403 29.1543 64.403 29.205C64.403 29.357 64.346 29.433 64.232 29.433H60.85C57.582 32.5237 55.948 34.354 55.948 34.924C55.948 35.0633 56.0367 35.133 56.214 35.133C56.518 35.133 57.4047 34.6707 58.874 33.746C59.1273 33.594 59.2793 33.5053 59.33 33.48L59.368 33.765C57.6453 34.905 56.423 35.475 55.701 35.475C55.321 35.475 55.131 35.3357 55.131 35.057C55.131 34.6643 55.4287 34.1323 56.024 33.461C56.8093 32.5237 58.1203 31.1873 59.957 29.452H56.689C56.5117 29.452 56.423 29.4013 56.423 29.3C56.423 29.186 56.4737 29.129 56.575 29.129H60.28L64.08 25.633C64.1433 25.5823 64.2637 25.5633 64.441 25.576C64.6183 25.5887 64.707 25.652 64.707 25.766ZM58.8526 35.038C59.334 35.038 59.9736 34.7973 60.7716 34.316C61.5823 33.822 62.2536 33.347 62.7856 32.891C63.3303 32.435 63.6026 32.169 63.6026 32.093C63.6026 32.017 63.5076 31.9537 63.3176 31.903C63.1403 31.8523 62.8933 31.827 62.5766 31.827C62.26 31.827 61.842 31.9537 61.3226 32.207C60.8033 32.4477 60.3536 32.739 59.9736 33.081C59.5936 33.423 59.277 33.7587 59.0236 34.088C58.7703 34.4173 58.6436 34.658 58.6436 34.81C58.6436 34.962 58.7133 35.038 58.8526 35.038ZM63.9446 31.846C64.198 31.6433 64.3373 31.542 64.3626 31.542C64.7046 31.58 64.882 31.6117 64.8946 31.637C64.9073 31.6497 64.9136 31.6687 64.9136 31.694C64.9136 31.7193 64.863 31.8017 64.7616 31.941C64.6603 32.0677 64.3626 32.378 63.8686 32.872C62.64 34.0753 62.0256 34.8037 62.0256 35.057C62.0256 35.1583 62.07 35.209 62.1586 35.209C62.7666 35.209 63.9066 34.6327 65.5786 33.48L65.6166 33.765C63.932 34.867 62.7413 35.418 62.0446 35.418C61.7026 35.418 61.5316 35.2597 61.5316 34.943C61.5316 34.6137 61.728 34.1893 62.1206 33.67C60.626 34.772 59.4606 35.3293 58.6246 35.342C58.3206 35.342 58.1686 35.1583 58.1686 34.791C58.1686 34.1323 58.5866 33.4293 59.4226 32.682C60.2713 31.9347 61.386 31.561 62.7666 31.561C63.2226 31.561 63.6153 31.656 63.9446 31.846ZM66.9158 31.637C66.9791 31.5863 67.1501 31.5737 67.4288 31.599C67.5681 31.6243 67.6378 31.656 67.6378 31.694C67.6378 31.7193 67.6061 31.77 67.5428 31.846C67.4794 31.922 67.1754 32.226 66.6308 32.758C65.5034 33.86 64.9398 34.5503 64.9398 34.829C64.9398 34.8923 64.9778 34.924 65.0538 34.924C65.4844 34.924 67.0488 34.012 69.7468 32.188L70.2598 31.77C70.3231 31.7193 70.4434 31.7003 70.6208 31.713C70.7981 31.7257 70.8868 31.789 70.8868 31.903C70.8868 31.9537 70.8678 31.998 70.8298 32.036C69.0564 33.632 68.1698 34.5947 68.1698 34.924C68.1698 35.0633 68.2711 35.133 68.4738 35.133C68.6764 35.133 68.9488 35.057 69.2908 34.905C69.6328 34.753 69.9368 34.601 70.2028 34.449C70.4688 34.2843 70.7854 34.088 71.1528 33.86C71.5328 33.6193 71.7354 33.4927 71.7608 33.48L71.7988 33.765C71.2161 34.145 70.5511 34.525 69.8038 34.905C69.0564 35.285 68.4864 35.475 68.0938 35.475C67.7138 35.475 67.5238 35.3167 67.5238 35C67.5238 34.5567 67.8658 33.9803 68.5498 33.271C66.5611 34.563 65.3324 35.209 64.8638 35.209C64.5851 35.209 64.4458 35.0443 64.4458 34.715C64.4458 34.0183 65.2691 32.9923 66.9158 31.637ZM73.7647 32.302L74.6577 32.188C74.8097 32.188 74.93 32.2387 75.0187 32.34C75.1073 32.4413 75.1517 32.5617 75.1517 32.701C75.1517 32.9797 74.9553 33.2837 74.5627 33.613C74.17 33.9423 73.7773 34.2527 73.3847 34.544C73.0047 34.8353 72.8147 35.0697 72.8147 35.247C72.8147 35.3483 72.897 35.399 73.0617 35.399C73.6063 35.399 74.436 35.0823 75.5507 34.449C76.032 34.183 76.545 33.86 77.0897 33.48L77.1277 33.765C76.697 34.0437 76.2157 34.3287 75.6837 34.62C75.3797 34.81 74.9363 35.0253 74.3537 35.266C73.771 35.5193 73.2897 35.646 72.9097 35.646C72.5297 35.646 72.3397 35.475 72.3397 35.133C72.3397 34.7403 72.5423 34.373 72.9477 34.031C73.353 33.6763 73.752 33.385 74.1447 33.157C74.55 32.9163 74.7527 32.7327 74.7527 32.606C74.7527 32.568 74.7083 32.549 74.6197 32.549L73.5557 32.644C73.353 32.644 73.1693 32.625 73.0047 32.587C72.3967 33.0177 71.757 33.442 71.0857 33.86L71.0287 33.594L72.8337 32.34C72.8463 32.0993 72.9983 31.8587 73.2897 31.618C73.581 31.3773 73.828 31.257 74.0307 31.257C74.2333 31.257 74.3347 31.314 74.3347 31.428C74.3347 31.5293 74.2143 31.6623 73.9737 31.827C73.733 31.9917 73.6127 32.112 73.6127 32.188C73.6127 32.264 73.6633 32.302 73.7647 32.302ZM76.6065 35.038C77.0878 35.038 77.7275 34.7973 78.5255 34.316C79.3362 33.822 80.0075 33.347 80.5395 32.891C81.0842 32.435 81.3565 32.169 81.3565 32.093C81.3565 32.017 81.2615 31.9537 81.0715 31.903C80.8942 31.8523 80.6472 31.827 80.3305 31.827C80.0138 31.827 79.5958 31.9537 79.0765 32.207C78.5572 32.4477 78.1075 32.739 77.7275 33.081C77.3475 33.423 77.0308 33.7587 76.7775 34.088C76.5242 34.4173 76.3975 34.658 76.3975 34.81C76.3975 34.962 76.4672 35.038 76.6065 35.038ZM81.6985 31.846C81.9518 31.6433 82.0912 31.542 82.1165 31.542C82.4585 31.58 82.6358 31.6117 82.6485 31.637C82.6612 31.6497 82.6675 31.6687 82.6675 31.694C82.6675 31.7193 82.6168 31.8017 82.5155 31.941C82.4142 32.0677 82.1165 32.378 81.6225 32.872C80.3938 34.0753 79.7795 34.8037 79.7795 35.057C79.7795 35.1583 79.8238 35.209 79.9125 35.209C80.5205 35.209 81.6605 34.6327 83.3325 33.48L83.3705 33.765C81.6858 34.867 80.4952 35.418 79.7985 35.418C79.4565 35.418 79.2855 35.2597 79.2855 34.943C79.2855 34.6137 79.4818 34.1893 79.8745 33.67C78.3798 34.772 77.2145 35.3293 76.3785 35.342C76.0745 35.342 75.9225 35.1583 75.9225 34.791C75.9225 34.1323 76.3405 33.4293 77.1765 32.682C78.0252 31.9347 79.1398 31.561 80.5205 31.561C80.9765 31.561 81.3692 31.656 81.6985 31.846ZM86.0376 31.58C86.3036 31.58 86.4366 31.7257 86.4366 32.017C86.4366 32.2957 86.2339 32.7073 85.8286 33.252C87.2726 32.2513 88.4316 31.751 89.3056 31.751C89.6476 31.751 89.8186 31.8967 89.8186 32.188C89.8186 32.4793 89.6919 32.7833 89.4386 33.1C89.1853 33.404 88.9066 33.67 88.6026 33.898C87.7919 34.4807 87.3866 34.848 87.3866 35C87.3866 35.0887 87.4563 35.133 87.5956 35.133C87.7476 35.133 87.9946 35.057 88.3366 34.905C88.6786 34.753 88.9826 34.601 89.2486 34.449C89.5146 34.2843 89.8313 34.088 90.1986 33.86C90.5786 33.6193 90.7813 33.4927 90.8066 33.48L90.8446 33.765C89.1346 34.905 87.9376 35.475 87.2536 35.475C86.9243 35.475 86.7596 35.3167 86.7596 35C86.7596 34.7847 86.8926 34.5313 87.1586 34.24C87.4373 33.936 87.7349 33.6573 88.0516 33.404C88.9256 32.7453 89.3626 32.3083 89.3626 32.093C89.3626 32.0297 89.2929 31.998 89.1536 31.998C88.6849 31.998 87.9883 32.2513 87.0636 32.758C86.1389 33.2647 85.1129 34.088 83.9856 35.228C83.9096 35.304 83.7639 35.342 83.5486 35.342C83.3459 35.342 83.2446 35.285 83.2446 35.171C83.2446 35.133 83.6816 34.6643 84.5556 33.765C85.4296 32.8657 85.8666 32.283 85.8666 32.017C85.8666 31.9537 85.8223 31.922 85.7336 31.922C85.6576 31.922 85.4866 32.0043 85.2206 32.169C84.9673 32.3337 84.5683 32.5997 84.0236 32.967C83.4916 33.3217 83.0356 33.6193 82.6556 33.86L82.5986 33.594C82.7886 33.4673 83.0483 33.29 83.3776 33.062C83.7069 32.834 83.9793 32.6503 84.1946 32.511C84.4099 32.359 84.6443 32.2007 84.8976 32.036C85.3916 31.732 85.7716 31.58 86.0376 31.58ZM98.8788 25.766C98.8788 25.8167 98.8091 25.9117 98.6698 26.051C98.5305 26.1777 98.2771 26.412 97.9098 26.754C97.5551 27.0833 97.1245 27.4823 96.6178 27.951C96.1111 28.4197 95.6868 28.8123 95.3448 29.129H98.5178C98.5558 29.129 98.5748 29.1543 98.5748 29.205C98.5748 29.357 98.5178 29.433 98.4038 29.433H95.0218C91.7538 32.5237 90.1198 34.354 90.1198 34.924C90.1198 35.0633 90.2085 35.133 90.3858 35.133C90.6898 35.133 91.5765 34.6707 93.0458 33.746C93.2991 33.594 93.4511 33.5053 93.5018 33.48L93.5398 33.765C91.8171 34.905 90.5948 35.475 89.8728 35.475C89.4928 35.475 89.3028 35.3357 89.3028 35.057C89.3028 34.6643 89.6005 34.1323 90.1958 33.461C90.9811 32.5237 92.2921 31.1873 94.1288 29.452H90.8608C90.6835 29.452 90.5948 29.4013 90.5948 29.3C90.5948 29.186 90.6455 29.129 90.7468 29.129H94.4518L98.2518 25.633C98.3151 25.5823 98.4355 25.5633 98.6128 25.576C98.7901 25.5887 98.8788 25.652 98.8788 25.766Z" fill="white"/>
</svg>
